<svg width="22" height="22" viewBox="0 0 19 19" fill="none" xmlns="http://www.w3.org/2000/svg">
<path d="M18.7613 7.86578L18.6686 7.47244H10.1193V11.0908H15.2274C14.6971 13.6092 12.2361 14.9348 10.226 14.9348C8.76335 14.9348 7.22158 14.3196 6.20111 13.3307C5.66271 12.8006 5.23415 12.1696 4.93996 11.4736C4.64577 10.7777 4.49173 10.0306 4.48666 9.27507C4.48666 7.75093 5.17162 6.22638 6.1683 5.22355C7.16498 4.22072 8.67025 3.65962 10.1669 3.65962C11.881 3.65962 13.1094 4.56976 13.5687 4.98484L16.14 2.4271C15.3857 1.76429 13.3136 0.0941315 10.0841 0.0941315C7.59236 0.0941315 5.2032 1.04857 3.45675 2.78927C1.73328 4.50331 0.841187 6.98189 0.841187 9.28164C0.841187 11.5814 1.68529 13.9361 3.35544 15.6637C5.14003 17.5061 7.66742 18.4691 10.2699 18.4691C12.6377 18.4691 14.8821 17.5414 16.4817 15.8581C18.0542 14.2011 18.8676 11.9083 18.8676 9.50476C18.8676 8.4929 18.7658 7.89203 18.7613 7.86578V7.86578Z" fill="#D83831"/>
</svg>